<mxfile host="app.diagrams.net" agent="Mozilla/5.0 (Macintosh; Intel Mac OS X 10_15_7) AppleWebKit/537.36 (KHTML, like Gecko) Chrome/128.0.0.0 Safari/537.36" version="24.8.4">
  <diagram name="Page-1" id="bA5YmMfd9jqQ35eqUHuy">
    <mxGraphModel grid="1" page="1" gridSize="10" guides="1" tooltips="1" connect="1" arrows="1" fold="1" pageScale="1" pageWidth="396" pageHeight="549" math="0" shadow="0">
      <root>
        <mxCell id="0" />
        <mxCell id="1" parent="0" />
        <mxCell id="21HE0S5JRe01f0f_W9WM-2" value="&lt;font style=&quot;font-size: 8px;&quot;&gt;&lt;b&gt;E&lt;/b&gt;xtract&lt;/font&gt;" style="shape=step;perimeter=stepPerimeter;whiteSpace=wrap;html=1;fixedSize=1;fillColor=#C5DFEF;" vertex="1" parent="1">
          <mxGeometry x="-789.75" y="-1080" width="137.5" height="90" as="geometry" />
        </mxCell>
        <mxCell id="21HE0S5JRe01f0f_W9WM-5" value="&lt;font style=&quot;font-size: 8px;&quot;&gt;&lt;b&gt;T&lt;/b&gt;ransform&lt;/font&gt;" style="shape=step;perimeter=stepPerimeter;whiteSpace=wrap;html=1;fixedSize=1;fillColor=#6ba5d7;" vertex="1" parent="1">
          <mxGeometry x="-664" y="-1080" width="141" height="90" as="geometry" />
        </mxCell>
        <mxCell id="21HE0S5JRe01f0f_W9WM-6" value="&lt;font style=&quot;font-size: 8px;&quot;&gt;&lt;b&gt;L&lt;/b&gt;oad&lt;/font&gt;" style="shape=step;perimeter=stepPerimeter;whiteSpace=wrap;html=1;fixedSize=1;fillColor=#0060b1;" vertex="1" parent="1">
          <mxGeometry x="-534.5" y="-1080" width="135" height="90" as="geometry" />
        </mxCell>
        <mxCell id="21HE0S5JRe01f0f_W9WM-9" value="&lt;font style=&quot;font-size: 8px;&quot;&gt;&lt;b&gt;Automated Data Extraction&lt;/b&gt;&lt;/font&gt;&lt;div&gt;&lt;font style=&quot;&quot;&gt;&lt;div style=&quot;&quot;&gt;&lt;span style=&quot;font-size: 8px;&quot;&gt;Use AI to scrape data from websites or extract information from unstructured data sources like PDFs or images.&lt;/span&gt;&lt;/div&gt;&lt;div style=&quot;font-size: 8px;&quot;&gt;&lt;br&gt;&lt;/div&gt;&lt;/font&gt;&lt;/div&gt;" style="rounded=0;whiteSpace=wrap;html=1;dashed=1;fillColor=#FEFAD5;strokeColor=#000000;" vertex="1" parent="1">
          <mxGeometry x="-781" y="-950" width="120" height="100" as="geometry" />
        </mxCell>
        <mxCell id="21HE0S5JRe01f0f_W9WM-10" value="&lt;font style=&quot;font-size: 8px;&quot;&gt;&lt;b&gt;Data Cleansing&lt;/b&gt;&lt;/font&gt;&lt;div&gt;&lt;font style=&quot;&quot;&gt;&lt;span style=&quot;&quot; id=&quot;docs-internal-guid-bb7926fb-7fff-f64a-f030-548ec2a0f65a&quot;&gt;&lt;p style=&quot;line-height: 1.2; margin-top: 0pt; margin-bottom: 0pt;&quot; dir=&quot;ltr&quot;&gt;&lt;span style=&quot;font-family: Arial, sans-serif; background-color: transparent; font-variant-numeric: normal; font-variant-east-asian: normal; font-variant-alternates: normal; font-variant-position: normal; vertical-align: baseline; white-space-collapse: preserve;&quot;&gt;&lt;font style=&quot;font-size: 8px;&quot;&gt;AI can automate the process of identifying and correcting errors, filling in missing values, and ensuring data consistency.&lt;/font&gt;&lt;/span&gt;&lt;/p&gt;&lt;div style=&quot;font-size: 8px;&quot;&gt;&lt;span style=&quot;font-size: 9pt; font-family: Arial, sans-serif; background-color: transparent; font-variant-numeric: normal; font-variant-east-asian: normal; font-variant-alternates: normal; font-variant-position: normal; vertical-align: baseline; white-space-collapse: preserve;&quot;&gt;&lt;br&gt;&lt;/span&gt;&lt;/div&gt;&lt;/span&gt;&lt;/font&gt;&lt;/div&gt;" style="rounded=0;whiteSpace=wrap;html=1;dashed=1;fillColor=#fee3ac;" vertex="1" parent="1">
          <mxGeometry x="-655" y="-950" width="120" height="100" as="geometry" />
        </mxCell>
        <mxCell id="21HE0S5JRe01f0f_W9WM-26" value="" style="edgeStyle=orthogonalEdgeStyle;rounded=0;orthogonalLoop=1;jettySize=auto;html=1;" edge="1" parent="1" source="21HE0S5JRe01f0f_W9WM-11" target="21HE0S5JRe01f0f_W9WM-6">
          <mxGeometry relative="1" as="geometry" />
        </mxCell>
        <mxCell id="21HE0S5JRe01f0f_W9WM-11" value="&lt;font style=&quot;font-size: 8px;&quot;&gt;&lt;b&gt;Dynamic Workflow Integration&lt;/b&gt;&lt;/font&gt;&lt;div&gt;&lt;font style=&quot;&quot;&gt;&lt;span style=&quot;&quot; id=&quot;docs-internal-guid-1c64dbea-7fff-7aa8-9d1e-fb4c7531129d&quot;&gt;&lt;p style=&quot;line-height: 1.2; margin-top: 0pt; margin-bottom: 0pt;&quot; dir=&quot;ltr&quot;&gt;&lt;span style=&quot;font-family: Arial, sans-serif; background-color: transparent; font-variant-numeric: normal; font-variant-east-asian: normal; font-variant-alternates: normal; font-variant-position: normal; vertical-align: baseline; white-space-collapse: preserve;&quot;&gt;&lt;font style=&quot;font-size: 8px;&quot;&gt;AI can automate the process of identifying and correcting errors, filling in missing values, and ensuring data consistency.&lt;/font&gt;&lt;/span&gt;&lt;/p&gt;&lt;div style=&quot;font-size: 8px;&quot;&gt;&lt;span style=&quot;font-size: 9pt; font-family: Arial, sans-serif; background-color: transparent; font-variant-numeric: normal; font-variant-east-asian: normal; font-variant-alternates: normal; font-variant-position: normal; vertical-align: baseline; white-space-collapse: preserve;&quot;&gt;&lt;br&gt;&lt;/span&gt;&lt;/div&gt;&lt;/span&gt;&lt;/font&gt;&lt;/div&gt;" style="rounded=0;whiteSpace=wrap;html=1;dashed=1;fillColor=#ddf8cd;" vertex="1" parent="1">
          <mxGeometry x="-527" y="-950" width="120" height="100" as="geometry" />
        </mxCell>
        <mxCell id="21HE0S5JRe01f0f_W9WM-12" value="&lt;font style=&quot;font-size: 8px;&quot;&gt;&lt;b&gt;Data Quality Assessment&lt;/b&gt;&lt;/font&gt;&lt;div&gt;&lt;font style=&quot;&quot;&gt;&lt;span style=&quot;font-size: 8px;&quot;&gt;AI can automatically evaluate the quality of extracted data, identifying issues like missing values or inconsistencies at the source.&lt;/span&gt;&lt;br&gt;&lt;/font&gt;&lt;/div&gt;" style="rounded=0;whiteSpace=wrap;html=1;dashed=1;fillColor=#FEF180;" vertex="1" parent="1">
          <mxGeometry x="-781" y="-810" width="121" height="100" as="geometry" />
        </mxCell>
        <mxCell id="21HE0S5JRe01f0f_W9WM-18" value="&lt;div&gt;&lt;font style=&quot;&quot;&gt;&lt;span style=&quot;&quot; id=&quot;docs-internal-guid-bb7926fb-7fff-f64a-f030-548ec2a0f65a&quot;&gt;&lt;p style=&quot;line-height: 1.2; margin-top: 0pt; margin-bottom: 0pt;&quot; dir=&quot;ltr&quot;&gt;&lt;span style=&quot;background-color: transparent; font-variant-numeric: normal; font-variant-east-asian: normal; font-variant-alternates: normal; font-variant-position: normal; vertical-align: baseline;&quot;&gt;&lt;font style=&quot;font-size: 8px;&quot;&gt;&lt;font face=&quot;Arial, sans-serif&quot;&gt;&lt;span style=&quot;white-space-collapse: preserve;&quot;&gt;&lt;b&gt;Feature Engineering&lt;/b&gt;&lt;/span&gt;&lt;/font&gt;&lt;/font&gt;&lt;/span&gt;&lt;/p&gt;&lt;p style=&quot;line-height: 1.2; margin-top: 0pt; margin-bottom: 0pt;&quot; dir=&quot;ltr&quot;&gt;&lt;font face=&quot;Arial, sans-serif&quot;&gt;&lt;span style=&quot;font-size: 8px; white-space-collapse: preserve;&quot;&gt;AI can suggest or automatically create new features from raw data, such as interaction terms, lag variables, or derived metrics.&lt;br&gt;&lt;/span&gt;&lt;/font&gt;&lt;/p&gt;&lt;p style=&quot;line-height: 1.2; margin-top: 0pt; margin-bottom: 0pt;&quot; dir=&quot;ltr&quot;&gt;&lt;font face=&quot;Arial, sans-serif&quot;&gt;&lt;span style=&quot;font-size: 8px; white-space-collapse: preserve;&quot;&gt;&lt;br&gt;&lt;/span&gt;&lt;/font&gt;&lt;/p&gt;&lt;/span&gt;&lt;/font&gt;&lt;/div&gt;" style="rounded=0;whiteSpace=wrap;html=1;dashed=1;fillColor=#ffb458;" vertex="1" parent="1">
          <mxGeometry x="-653.5" y="-810" width="120" height="100" as="geometry" />
        </mxCell>
        <mxCell id="21HE0S5JRe01f0f_W9WM-19" value="&lt;div&gt;&lt;font style=&quot;&quot;&gt;&lt;span style=&quot;&quot; id=&quot;docs-internal-guid-1c64dbea-7fff-7aa8-9d1e-fb4c7531129d&quot;&gt;&lt;p style=&quot;line-height: 1.2; margin-top: 0pt; margin-bottom: 0pt;&quot; dir=&quot;ltr&quot;&gt;&lt;span style=&quot;background-color: transparent; font-variant-numeric: normal; font-variant-east-asian: normal; font-variant-alternates: normal; font-variant-position: normal; vertical-align: baseline;&quot;&gt;&lt;font style=&quot;&quot;&gt;&lt;span style=&quot;font-size: 8px;&quot;&gt;&lt;b&gt;Real-Time Decision Making&lt;/b&gt;&lt;/span&gt;&lt;/font&gt;&lt;/span&gt;&lt;/p&gt;&lt;p style=&quot;line-height: 1.2; margin-top: 0pt; margin-bottom: 0pt;&quot; dir=&quot;ltr&quot;&gt;&lt;font face=&quot;Arial, sans-serif&quot;&gt;&lt;span style=&quot;font-size: 8px; white-space-collapse: preserve;&quot;&gt;AI can enable real-time decision-making by loading data directly into operational systems where it can be acted upon immediately.&lt;/span&gt;&lt;/font&gt;&lt;br&gt;&lt;/p&gt;&lt;p style=&quot;line-height: 1.2; margin-top: 0pt; margin-bottom: 0pt;&quot; dir=&quot;ltr&quot;&gt;&lt;font face=&quot;Arial, sans-serif&quot;&gt;&lt;span style=&quot;font-size: 8px; white-space-collapse: preserve;&quot;&gt;&lt;br&gt;&lt;/span&gt;&lt;/font&gt;&lt;/p&gt;&lt;/span&gt;&lt;/font&gt;&lt;/div&gt;" style="rounded=0;whiteSpace=wrap;html=1;dashed=1;fillColor=#c2e373;" vertex="1" parent="1">
          <mxGeometry x="-527" y="-810" width="120" height="100" as="geometry" />
        </mxCell>
        <mxCell id="21HE0S5JRe01f0f_W9WM-20" value="&lt;div&gt;&lt;font style=&quot;&quot;&gt;&lt;div style=&quot;&quot;&gt;&lt;span style=&quot;font-size: 8px;&quot;&gt;&lt;b&gt;Dynamic Data Sourcing&lt;/b&gt;&lt;/span&gt;&lt;/div&gt;&lt;div&gt;&lt;span style=&quot;font-size: 8px;&quot;&gt;AI-driven solutions can adapt to changes in data sources, automatically identifying and integrating new or updated data points.&lt;/span&gt;&lt;/div&gt;&lt;/font&gt;&lt;/div&gt;" style="rounded=0;whiteSpace=wrap;html=1;dashed=1;fillColor=#e6cb00;" vertex="1" parent="1">
          <mxGeometry x="-780" y="-670" width="121" height="100" as="geometry" />
        </mxCell>
        <mxCell id="21HE0S5JRe01f0f_W9WM-21" value="&lt;div&gt;&lt;font style=&quot;&quot;&gt;&lt;span style=&quot;&quot; id=&quot;docs-internal-guid-bb7926fb-7fff-f64a-f030-548ec2a0f65a&quot;&gt;&lt;font face=&quot;Arial, sans-serif&quot;&gt;&lt;span style=&quot;font-size: 8px; white-space-collapse: preserve;&quot;&gt;&lt;b&gt;Contextual Data Enrichment&lt;/b&gt;&lt;/span&gt;&lt;/font&gt;&amp;nbsp;&lt;p style=&quot;line-height: 1.2; margin-top: 0pt; margin-bottom: 0pt;&quot; dir=&quot;ltr&quot;&gt;&lt;font face=&quot;Arial, sans-serif&quot;&gt;&lt;span style=&quot;font-size: 8px; white-space-collapse: preserve;&quot;&gt;AI can add value by enriching data with additional context, such as sentiment scores, inferred categories, or standardized units&lt;/span&gt;&lt;/font&gt;&lt;br&gt;&lt;/p&gt;&lt;p style=&quot;line-height: 1.2; margin-top: 0pt; margin-bottom: 0pt;&quot; dir=&quot;ltr&quot;&gt;&lt;font face=&quot;Arial, sans-serif&quot;&gt;&lt;span style=&quot;font-size: 8px; white-space-collapse: preserve;&quot;&gt;&lt;br&gt;&lt;/span&gt;&lt;/font&gt;&lt;/p&gt;&lt;/span&gt;&lt;/font&gt;&lt;/div&gt;" style="rounded=0;whiteSpace=wrap;html=1;dashed=1;fillColor=#e37b45;" vertex="1" parent="1">
          <mxGeometry x="-652.5" y="-670" width="120" height="100" as="geometry" />
        </mxCell>
        <mxCell id="21HE0S5JRe01f0f_W9WM-22" value="&lt;div&gt;&lt;font style=&quot;&quot;&gt;&lt;span style=&quot;&quot; id=&quot;docs-internal-guid-1c64dbea-7fff-7aa8-9d1e-fb4c7531129d&quot;&gt;&lt;p style=&quot;line-height: 1.2; margin-top: 0pt; margin-bottom: 0pt;&quot; dir=&quot;ltr&quot;&gt;&lt;span style=&quot;font-size: 8px;&quot;&gt;&lt;b&gt;Automated Feedback Loops&lt;/b&gt;&lt;/span&gt;&lt;/p&gt;&lt;p style=&quot;line-height: 1.2; margin-top: 0pt; margin-bottom: 0pt;&quot; dir=&quot;ltr&quot;&gt;&lt;font face=&quot;Arial, sans-serif&quot;&gt;&lt;span style=&quot;font-size: 8px; white-space-collapse: preserve;&quot;&gt;AI can create automated feedback loops where loaded data informs future ETL processes. &lt;br/&gt;&lt;/span&gt;&lt;/font&gt;&lt;/p&gt;&lt;p style=&quot;line-height: 1.2; margin-top: 0pt; margin-bottom: 0pt;&quot; dir=&quot;ltr&quot;&gt;&lt;font face=&quot;Arial, sans-serif&quot;&gt;&lt;span style=&quot;font-size: 8px; white-space-collapse: preserve;&quot;&gt;&lt;br&gt;&lt;/span&gt;&lt;/font&gt;&lt;/p&gt;&lt;/span&gt;&lt;/font&gt;&lt;/div&gt;" style="rounded=0;whiteSpace=wrap;html=1;dashed=1;fillColor=#80c21d;" vertex="1" parent="1">
          <mxGeometry x="-526" y="-670" width="120" height="100" as="geometry" />
        </mxCell>
        <mxCell id="21HE0S5JRe01f0f_W9WM-23" value="&lt;font style=&quot;font-size: 8px;&quot;&gt;Level 1&lt;/font&gt;" style="rounded=0;whiteSpace=wrap;html=1;fillColor=#737373;" vertex="1" parent="1">
          <mxGeometry x="-789.75" y="-984" width="389.75" height="30" as="geometry" />
        </mxCell>
        <mxCell id="21HE0S5JRe01f0f_W9WM-24" value="&lt;font style=&quot;font-size: 8px;&quot;&gt;Level 2&lt;/font&gt;" style="rounded=0;whiteSpace=wrap;html=1;fillColor=#737373;" vertex="1" parent="1">
          <mxGeometry x="-789.88" y="-846" width="389.75" height="30" as="geometry" />
        </mxCell>
        <mxCell id="21HE0S5JRe01f0f_W9WM-25" value="&lt;font style=&quot;font-size: 8px;&quot;&gt;Level 3&lt;/font&gt;" style="rounded=0;whiteSpace=wrap;html=1;fillColor=#737373;" vertex="1" parent="1">
          <mxGeometry x="-789.88" y="-706" width="389.75" height="30" as="geometry" />
        </mxCell>
      </root>
    </mxGraphModel>
  </diagram>
</mxfile>
